<svg width="33" height="33" viewBox="0 0 33 33" fill="none" xmlns="http://www.w3.org/2000/svg">
<path d="M4.90039 17.95C9.97539 15.05 16.5004 15.05 19.4004 20.85C20.6273 20.2236 21.9955 19.9257 23.3717 19.9853C24.748 20.0449 26.0853 20.4599 27.2535 21.19C28.4216 21.9201 29.3808 22.9403 30.0374 24.1513C30.694 25.3623 31.0258 26.7227 31.0004 28.1M6.5675 25.0405C14.5715 22.8365 19.11 15.05 16.7175 7.6405C15.8475 4.9 15.775 2 17.95 2C22.619 2 25.2 9.975 25.2 13.6C25.2 23.025 19.11 31 9.9895 31C6.5095 31 2 31 2 28.1C2 25.925 3.653 25.8525 6.5675 25.0405Z" stroke="black" stroke-width="2.9" stroke-linecap="round" stroke-linejoin="round"/>
</svg>
